<svg width="51" height="39" viewBox="0 0 51 39" fill="none" xmlns="http://www.w3.org/2000/svg">
    <path d="M34.019 22.48c3.351 0 8.201-.699 8.201-4.733.022-.678.086-.183-2.08-9.69-.46-1.928-.864-2.803-4.214-4.496C33.327 2.218 27.666 0 25.992 0c-1.56 0-2.012 2.03-3.872 2.03-1.793 0-3.119-1.515-4.793-1.515-1.608 0-2.656 1.107-3.464 3.385-2.74 7.808-2.618 7.478-2.602 7.88 0 2.498 9.726 10.685 22.758 10.685v.015zm8.713-3.093c.464 2.215.464 2.451.464 2.744 0 3.791-4.217 5.896-9.762 5.896-12.525.008-23.499-7.416-23.499-12.318a5.034 5.034 0 0 1 .404-1.985C5.833 13.951 0 14.764 0 19.97 0 28.495 19.985 39 35.809 39 47.94 39 51 33.454 51 29.074c0-3.445-2.947-7.355-8.26-9.69" fill="#fff"/>
</svg>
