<svg width="49" height="32" viewBox="0 0 49 32" fill="none" xmlns="http://www.w3.org/2000/svg">
    <path d="M47.826 26.66c-1.83-.2-3.582-.875-4.927-1.908-1.2-.925-2.91-.942-4.1 0-3.225 2.534-9.122 2.534-12.397-.125-1.15-.934-2.808-.759-3.974.15-3.233 2.509-9.095 2.5-12.354-.142-1.149-.933-2.833-.742-4.008.167-1.318 1.017-3.063 1.675-4.909 1.867-.672.067-1.157.65-1.157 1.309v2.684c0 .758.647 1.4 1.42 1.333 2.451-.208 4.774-.95 6.757-2.159 4.807 2.884 11.656 2.843 16.336 0 4.807 2.884 11.656 2.843 16.336 0 1.982 1.184 4.33 1.943 6.73 2.15.774.068 1.42-.574 1.42-1.333V28.02c.01-.666-.484-1.283-1.173-1.358zm0-12.002c-1.83-.2-3.582-.875-4.927-1.909-1.2-.925-2.91-.942-4.1 0-3.225 2.534-9.122 2.534-12.397-.125-1.15-.934-2.808-.758-3.974.15-3.233 2.509-9.095 2.5-12.354-.142-1.149-.933-2.833-.742-4.008.167-1.318 1.017-3.063 1.675-4.909 1.867-.672.067-1.157.65-1.157 1.309v2.684c0 .758.647 1.4 1.42 1.333 2.451-.208 4.774-.95 6.757-2.159 4.807 2.885 11.656 2.843 16.336 0 4.807 2.885 11.656 2.843 16.336 0 1.982 1.184 4.33 1.943 6.73 2.151.774.067 1.42-.575 1.42-1.334v-2.634c.01-.666-.484-1.283-1.173-1.358zm0-12.003c-1.83-.208-3.582-.875-4.927-1.909-1.2-.925-2.91-.942-4.1 0C35.573 3.28 29.676 3.28 26.401.621c-1.15-.933-2.808-.758-3.974.15-3.233 2.51-9.095 2.5-12.354-.142C8.925-.304 7.24-.112 6.066.796 4.748 1.813 3.003 2.472 1.157 2.663.485 2.73 0 3.313 0 3.972v2.684c0 .758.647 1.4 1.42 1.334 2.451-.209 4.774-.95 6.757-2.16 4.807 2.885 11.656 2.843 16.336 0 4.807 2.885 11.656 2.843 16.336 0 1.982 1.184 4.33 1.943 6.73 2.151.774.067 1.42-.575 1.42-1.333V4.014c.01-.667-.484-1.284-1.173-1.36z" fill="#fff"/>
</svg>
