<svg width="211" height="36" viewBox="0 0 211 36" fill="none" xmlns="http://www.w3.org/2000/svg">
    <path fill-rule="evenodd" clip-rule="evenodd" d="m87.244.833-.165 7.794.165.168v23.856h5.675V14.608l11.929 12.218v.214l5.676 5.61V.834h-5.676v17.864L92.919 6.592v-.148L87.244.834zM5.616 13.24 17.6.833h7.518L10.097 16.742l15.022 15.909h-7.518L5.616 20.244v12.407H0V.833h5.616V13.24zM56.34 3.141l13.993 29.51h-5.62l-9.451-19.929-9.45 19.929H40.19L54.785 1.87l.46-1.038.016.035.017-.035 1.06 2.308zM196.229 3.141 211 32.651h-5.933l-9.976-19.929-9.975 19.929h-5.933l15.406-30.78.485-1.038.017.035.018-.035 1.12 2.308zM148.202 33.17c-1.244 1.14-2.912 2.075-4.664 2.83a17.296 17.296 0 0 1-3.688-1.51c4.169-1.568 8.352-4.363 8.352-4.363s4.184 2.795 8.352 4.363a17.273 17.273 0 0 1-3.687 1.51c-1.753-.755-3.42-1.69-4.665-2.83zm.029-8.868c.514.34 7.921 5.193 13.345 6.051-.662.79-1.39 1.52-2.176 2.182-3.219-.755-8.331-2.295-11.198-4.92-2.866 2.625-7.978 4.165-11.197 4.92a17.846 17.846 0 0 1-2.177-2.182c5.622-.89 13.374-6.07 13.374-6.07l.029.02zm-17.375-2.621a18.333 18.333 0 0 1-.237-2.946c0-9.88 7.879-17.902 17.583-17.902 9.705 0 17.584 8.022 17.584 17.902 0 1.003-.082 1.987-.238 2.946-1.971-.335-12.363-2.28-17.346-6.844l-.032.03c-4.996 4.542-15.347 6.48-17.314 6.814zm17.317-.256c-4.201 3.82-12.532 5.629-15.268 6.138a17.97 17.97 0 0 1-1.269-2.817c6.093.239 16.566-6.76 16.566-6.76l.031.02c.627.415 10.638 6.973 16.536 6.74-.344.981-.77 1.923-1.269 2.817-2.744-.51-11.108-2.327-15.298-6.165l-.029.027z" fill="#000"/>
</svg>
