<svg width="225" height="38" viewBox="0 0 225 38" fill="none" xmlns="http://www.w3.org/2000/svg">
<path d="M29.0341 26.1931C29.0341 28.4031 28.4648 30.3886 27.327 32.1496C26.1888 33.9107 24.5232 35.2897 22.33 36.2865C20.1369 37.2836 17.5365 37.7819 14.5295 37.7819C10.9241 37.7819 7.95006 37.1007 5.60738 35.7383C3.94572 34.758 2.59579 33.4498 1.55758 31.8131C0.519021 30.1769 0 28.5856 0 27.0405C0 26.1433 0.31155 25.375 0.934478 24.7353C1.55758 24.0958 2.35072 23.7757 3.31459 23.7757C4.09526 23.7757 4.75579 24.0249 5.29583 24.5232C5.83553 25.0217 6.29661 25.7614 6.67909 26.7415C7.1441 27.9046 7.64672 28.8765 8.18693 29.6574C8.72646 30.4385 9.48662 31.082 10.4672 31.5887C11.4473 32.0957 12.7351 32.349 14.3301 32.349C16.5232 32.349 18.3052 31.8379 19.676 30.8162C21.0466 29.7942 21.7319 28.5193 21.7319 26.9906C21.7319 25.7779 21.3621 24.7937 20.6229 24.0373C19.8834 23.2816 18.9283 22.704 17.7569 22.3053C16.5856 21.9066 15.0193 21.4827 13.0591 21.0341C10.4337 20.4197 8.23666 19.7009 6.46717 18.8784C4.69785 18.0562 3.29357 16.9346 2.25536 15.5141C1.2168 14.0934 0.69778 12.3283 0.69778 10.2181C0.69778 8.20795 1.24603 6.42188 2.34252 4.85986C3.43918 3.29836 5.02564 2.09779 7.10275 1.25867C9.17951 0.419728 11.6218 0 14.4297 0C16.6728 0 18.6125 0.278395 20.2492 0.835014C21.8854 1.3918 23.2437 2.13094 24.3238 3.05312C25.4037 3.97512 26.1929 4.94309 26.6914 5.95652C27.1899 6.97013 27.4391 7.95878 27.4391 8.92214C27.4391 9.80313 27.1275 10.5961 26.5046 11.3023C25.8815 12.0086 25.1046 12.3613 24.1742 12.3613C23.3269 12.3613 22.6828 12.1496 22.2429 11.7259C21.8025 11.3023 21.3246 10.6087 20.8097 9.64487C20.1451 8.26606 19.3477 7.19007 18.4173 6.41744C17.4866 5.64497 15.9914 5.25857 13.9314 5.25857C12.0205 5.25857 10.4797 5.67847 9.30837 6.51707C8.13703 7.35636 7.55136 8.36569 7.55136 9.54524C7.55136 10.2765 7.75062 10.9078 8.1495 11.4393C8.54821 11.9712 9.09646 12.428 9.79424 12.8099C10.492 13.1924 11.1982 13.4915 11.9127 13.7071C12.6269 13.9233 13.8068 14.2392 15.4515 14.6541C17.5115 15.1364 19.3769 15.6679 21.0466 16.2491C22.7164 16.831 24.137 17.537 25.3083 18.3676C26.4796 19.1985 27.3931 20.2493 28.0497 21.5202C28.7058 22.7913 29.0341 24.3489 29.0341 26.1931Z" fill="#00ABE8"/>
<path d="M35.1033 33.271V4.48594C35.1033 2.99057 35.4437 1.8693 36.1251 1.12161C36.8061 0.373928 37.6866 0 38.7668 0C39.8797 0 40.7812 0.369997 41.4708 1.10914C42.16 1.84862 42.5051 2.97433 42.5051 4.48594V33.271C42.5051 34.7831 42.16 35.9128 41.4708 36.6603C40.7812 37.408 39.8797 37.7819 38.7668 37.7819C37.7033 37.7819 36.8268 37.4039 36.1376 36.648C35.448 35.8921 35.1033 34.7662 35.1033 33.271Z" fill="#00ABE8"/>
<path d="M65.3132 20.9295H57.6123V31.5962H65.5623C70.5632 31.5962 73.064 29.7936 73.064 26.1881C73.064 24.3439 72.4159 23.0066 71.12 22.1757C69.824 21.3452 67.8883 20.9295 65.3132 20.9295ZM57.6123 6.1758V15.6211H64.391C66.2353 15.6211 67.6598 15.4467 68.6652 15.0978C69.6702 14.749 70.4386 14.0845 70.9704 13.1041C71.3856 12.4063 71.5935 11.6254 71.5935 10.7614C71.5935 8.91719 70.9369 7.69201 69.6248 7.08532C68.3119 6.47897 66.31 6.1758 63.6184 6.1758H57.6123ZM65.8614 37.1539H54.6964C53.0846 37.1539 51.934 36.7924 51.2447 36.0697C50.5552 35.3469 50.2104 34.1966 50.2104 32.618V5.15382C50.2104 3.54258 50.5632 2.38354 51.2697 1.67739C51.9757 0.9714 53.1178 0.617981 54.6964 0.617981H66.5344C68.2789 0.617981 69.7906 0.72633 71.0702 0.942176C72.3493 1.15819 73.4958 1.57365 74.5094 2.1882C75.3731 2.70346 76.1374 3.35562 76.8022 4.14449C77.4665 4.93387 77.9736 5.80614 78.3225 6.76147C78.6713 7.71697 78.8458 8.7263 78.8458 9.78929C78.8458 13.4447 77.0179 16.1196 73.363 17.8142C78.1644 19.3431 80.5654 22.3169 80.5654 26.7365C80.5654 28.7801 80.0421 30.6204 78.9954 32.2566C77.9486 33.8933 76.5363 35.102 74.7586 35.8827C73.6454 36.3481 72.3662 36.6764 70.9207 36.8673C69.4752 37.0583 67.7886 37.1539 65.8614 37.1539Z" fill="#00ABE8"/>
<path d="M113.051 18.7912C113.051 16.1165 112.619 13.7986 111.755 11.8379C110.891 9.87764 109.657 8.39474 108.054 7.38934C106.45 6.38428 104.61 5.88167 102.534 5.88167C101.055 5.88167 99.6883 6.16007 98.4341 6.71651C97.1793 7.2733 96.0996 8.08337 95.1941 9.14636C94.2884 10.2099 93.5742 11.568 93.0509 13.2211C92.5274 14.8746 92.2658 16.7312 92.2658 18.7912C92.2658 20.8682 92.5274 22.7457 93.0509 24.4236C93.5742 26.1018 94.3133 27.4933 95.2688 28.5981C96.2242 29.7032 97.3206 30.5296 98.5586 31.0779C99.7961 31.6261 101.154 31.9002 102.633 31.9002C104.527 31.9002 106.268 31.4267 107.855 30.4797C109.441 29.5326 110.704 28.0707 111.643 26.0934C112.581 24.1163 113.051 21.6822 113.051 18.7912ZM102.534 0C106.322 0 109.574 0.768705 112.291 2.30526C115.007 3.84216 117.063 6.02711 118.459 8.85976C119.855 11.6928 120.552 15.0198 120.552 18.841C120.552 21.6658 120.17 24.2328 119.406 26.542C118.642 28.8516 117.495 30.8535 115.967 32.5481C114.438 34.2429 112.561 35.5388 110.334 36.4359C108.108 37.3331 105.557 37.7817 102.683 37.7817C99.8253 37.7817 97.2666 37.3208 95.0072 36.3985C92.7476 35.4765 90.8617 34.1766 89.3499 32.4984C87.8378 30.8205 86.6957 28.8017 85.9232 26.4424C85.1506 24.0833 84.7642 21.5326 84.7642 18.7912C84.7642 15.9835 85.167 13.4081 85.9729 11.0654C86.7786 8.7227 87.9458 6.72899 89.4745 5.08408C91.003 3.43918 92.8639 2.18068 95.0571 1.30841C97.2502 0.436136 99.7423 0 102.534 0Z" fill="#00ABE8"/>
<path d="M136.005 4.4362L150.236 25.9687V4.23676C150.236 2.82462 150.539 1.76556 151.145 1.05923C151.752 0.353078 152.57 0 153.6 0C154.663 0 155.502 0.353078 156.117 1.05923C156.732 1.76556 157.039 2.82462 157.039 4.23676V32.9719C157.039 36.1785 155.71 37.7817 153.052 37.7817C152.387 37.7817 151.789 37.686 151.257 37.4951C150.726 37.3039 150.227 37.0011 149.762 36.5854C149.297 36.1703 148.865 35.6844 148.466 35.1277C148.067 34.571 147.669 34.0023 147.27 33.4205L133.388 12.1371V33.545C133.388 34.9407 133.064 35.996 132.416 36.7102C131.768 37.4242 130.938 37.7817 129.924 37.7817C128.878 37.7817 128.038 37.4204 127.407 36.6975C126.775 35.975 126.46 34.9243 126.46 33.545V5.35837C126.46 4.16208 126.593 3.2235 126.859 2.54213C127.174 1.79444 127.698 1.18382 128.429 0.710256C129.16 0.236865 129.949 0 130.796 0C131.461 0 132.03 0.108349 132.504 0.324024C132.977 0.540041 133.392 0.830912 133.75 1.19629C134.107 1.56202 134.472 2.03541 134.846 2.61681C135.22 3.19855 135.606 3.8049 136.005 4.4362Z" fill="#00ABE8"/>
<path d="M188.714 6.32522H172.041V15.2973H187.393C188.523 15.2973 189.366 15.5507 189.923 16.0573C190.479 16.5643 190.758 17.2329 190.758 18.0636C190.758 18.8945 190.483 19.5715 189.935 20.0947C189.387 20.618 188.539 20.8797 187.393 20.8797H172.041V31.2722H189.287C190.45 31.2722 191.327 31.5426 191.916 32.0823C192.506 32.6223 192.801 33.3408 192.801 34.238C192.801 35.1021 192.506 35.8042 191.916 36.3439C191.327 36.8841 190.45 37.1539 189.287 37.1539H169.175C167.563 37.1539 166.404 36.7967 165.698 36.0822C164.992 35.368 164.639 34.2131 164.639 32.6181V5.15388C164.639 4.09089 164.797 3.22255 165.113 2.54955C165.428 1.87672 165.923 1.38692 166.596 1.0793C167.269 0.772023 168.128 0.618042 169.175 0.618042H188.714C189.893 0.618042 190.77 0.879861 191.343 1.40315C191.916 1.92662 192.203 2.61192 192.203 3.45924C192.203 4.32331 191.916 5.01699 191.343 5.54028C190.77 6.06375 189.893 6.32522 188.714 6.32522Z" fill="#00ABE8"/>
<path d="M206.358 33.271V21.6822L197.436 7.8506C196.655 6.6044 196.103 5.63233 195.779 4.93455C195.455 4.23676 195.293 3.63058 195.293 3.11532C195.293 2.268 195.621 1.53707 196.277 0.922173C196.933 0.307619 197.743 0 198.707 0C199.72 0 200.489 0.286598 201.012 0.859965C201.536 1.43299 202.321 2.57562 203.368 4.28667L210.196 15.377L217.1 4.28667C217.515 3.60563 217.864 3.03244 218.146 2.56708C218.429 2.10206 218.74 1.66593 219.081 1.25867C219.421 0.851762 219.799 0.540213 220.215 0.324025C220.63 0.10835 221.137 0 221.735 0C222.665 0 223.442 0.303517 224.065 0.909868C224.688 1.51639 225 2.2181 225 3.01569C225 3.66357 224.842 4.31162 224.526 4.9595C224.21 5.60755 223.67 6.50477 222.906 7.65116L213.76 21.6822V33.271C213.76 34.7831 213.411 35.9128 212.713 36.6603C212.016 37.408 211.126 37.7819 210.047 37.7819C208.95 37.7819 208.061 37.4119 207.38 36.6728C206.698 35.9338 206.358 34.7997 206.358 33.271Z" fill="#00ABE8"/>
</svg>
