<svg width="301" height="94" viewBox="0 0 301 94" fill="none" xmlns="http://www.w3.org/2000/svg">
    <path fill-rule="evenodd" clip-rule="evenodd" d="M0 .433h53.345v7.954H30.647v40.898h-8.094V8.387H0V.433zM40.677 49.215 62.457.487h7.423l21.144 48.728h-9.04l-7.266-17.272h-17.42l-7.75 17.272h-8.87zM60.85 23.88l5.16-11.935 5.164 11.935H60.85zM102.165 49.215h-7.59V.487h7.59l34.038 37.749V1.298h7.748v47.917h-8.071l-33.715-37.112v37.112zM175.537 41.348c8.164-1.03 14.391-8.105 14.391-16.327 0-8.365-6.419-15.565-14.714-16.403H156.22v32.7l19.317.03zm-1.915 7.868h.183c13.238 0 24.043-10.82 24.043-24.283 0-13.466-10.805-24.447-24.043-24.447h-25.337V49.23l25.154-.014zM227.462 0c14.438 0 26.211 11.084 26.211 24.688 0 13.6-11.773 24.689-26.211 24.689-14.456 0-26.227-11.089-26.227-24.689C201.235 11.084 213.006 0 227.462 0zm0 8.067c10.001 0 18.158 7.51 18.158 16.707 0 9.19-8.157 16.697-18.158 16.697-10.017 0-18.166-7.506-18.166-16.697 0-9.196 8.149-16.707 18.166-16.707zM257.902 49.26V.538l19.674-.065c9.075-.015 16.3 7.368 16.3 16.352 0 6.234-3.574 12.078-9.138 14.768L301 49.26h-11.41l-21.182-23.544 10.354-.066c4.233-1.16 7.133-4.697 7.133-8.659 0-4.947-4.523-9.007-10.07-9.05h-10.232v41.319h-7.691z" fill="#000" stroke="#000" stroke-width=".002" stroke-miterlimit="10"/>
    <path d="M298.94 61.544H.269v1.967H298.94v-1.967z" fill="#000" stroke="#000" stroke-width=".002" stroke-miterlimit="10"/>
    <path fill-rule="evenodd" clip-rule="evenodd" d="M23.5 92.856V72.753h12.02v1.653H25.238v7.273h9.327v1.642h-9.327v9.535H23.5zm39.104-10.032c0 2.748.611 4.93 1.852 6.528 1.23 1.614 2.923 2.412 5.027 2.412 2.127 0 3.82-.798 5.06-2.412 1.252-1.594 1.88-3.772 1.88-6.528 0-2.768-.628-4.958-1.88-6.572-1.24-1.598-2.933-2.41-5.06-2.41-2.09 0-3.758.812-5.012 2.424-1.24 1.63-1.867 3.82-1.867 6.558zm-1.814 0c0-3.267.79-5.842 2.348-7.752 1.577-1.897 3.691-2.85 6.345-2.85 2.677 0 4.802.954 6.364 2.85 1.577 1.91 2.358 4.484 2.358 7.752 0 3.252-.781 5.837-2.358 7.735-1.562 1.906-3.687 2.86-6.364 2.86-2.654 0-4.768-.954-6.345-2.86-1.558-1.898-2.348-4.483-2.348-7.735zm45.677-.62h5.048c1.77 0 3.046-.308 3.819-.94.781-.643 1.161-1.682 1.161-3.108 0-.657-.119-1.247-.357-1.774a3.17 3.17 0 0 0-1.052-1.279 3.983 3.983 0 0 0-1.268-.542c-.481-.107-1.293-.155-2.408-.155h-4.943v7.798zm-1.745 10.652V72.753h6.339c1.48 0 2.537.055 3.194.185a5.377 5.377 0 0 1 1.73.626 4.496 4.496 0 0 1 1.715 1.852c.412.796.611 1.678.611 2.688 0 1.232-.26 2.28-.789 3.122-.525.848-1.287 1.45-2.28 1.816.772.273 1.329.701 1.663 1.266.327.559.579 1.7.709 3.406l.252 3.015c.023.485.093.863.193 1.176.108.308.252.537.406.676v.275h-1.928a3.046 3.046 0 0 1-.262-.827 10.49 10.49 0 0 1-.16-1.24l-.222-2.653c-.122-1.837-.429-3.007-.928-3.513-.488-.508-1.474-.766-2.953-.766h-5.545v8.999h-1.745zM176.99 93.354v-20.12h2.469l6.354 17.716 6.227-17.715h2.478v20.119h-1.705V75.815l-6.175 17.539H185l-6.282-17.539v17.539h-1.728zm47.094 0v-20.12h12.594v1.655h-10.83v7.33h9.91v1.6h-9.91v7.88h11.155v1.655h-12.919zm37.719 0v-20.12h1.948l10.864 17.264V73.235h1.716v20.119h-1.964L263.539 76.09v17.264h-1.736z" fill="#000" stroke="#000" stroke-width=".002" stroke-miterlimit="10"/>
</svg>
